<svg width="206" height="36" viewBox="0 0 206 36" fill="none" xmlns="http://www.w3.org/2000/svg">
<path fill-rule="evenodd" clip-rule="evenodd" d="M47.5273 27.3604C49.0362 28.0254 50.9032 28.3579 53.1282 28.3579C55.1997 28.3579 56.99 28.0637 58.4989 27.4755C60.0334 26.8617 61.2226 25.9922 62.0666 24.8669C62.9105 23.716 63.3325 22.335 63.3325 20.7238C63.3325 19.266 63.0128 18.0768 62.3735 17.1561C61.7597 16.2098 60.8006 15.4298 59.4963 14.816C58.192 14.1766 56.5168 13.5756 54.4709 13.013C52.7829 12.527 51.4147 12.0667 50.3661 11.6319C49.3175 11.1972 48.5503 10.6984 48.0644 10.1358C47.5785 9.54758 47.3355 8.8187 47.3355 7.94916C47.3355 6.59369 47.847 5.59627 48.87 4.9569C49.9186 4.31753 51.274 3.99785 52.9364 3.99785C54.5732 3.99785 55.9031 4.3559 56.926 5.07199C57.949 5.78809 58.5373 6.67042 58.6907 7.71898C58.793 8.00031 58.9337 8.19212 59.1127 8.29442C59.3173 8.39672 59.5091 8.44787 59.6881 8.44787H61.7213C62.0026 8.44787 62.2072 8.37114 62.3351 8.21769C62.463 8.03867 62.5269 7.85964 62.5269 7.68062C62.5014 6.91338 62.284 6.13335 61.8748 5.34053C61.4656 4.52213 60.8646 3.76767 60.0717 3.07715C59.2789 2.36106 58.2815 1.79842 57.0795 1.38922C55.9031 0.954447 54.522 0.737061 52.9364 0.737061C50.9415 0.737061 49.2408 1.05675 47.8342 1.69611C46.4532 2.33549 45.3918 3.20503 44.6501 4.30475C43.9085 5.37889 43.5376 6.60648 43.5376 7.98752C43.5376 9.44528 43.8318 10.6473 44.42 11.5936C45.0338 12.5398 45.9545 13.3327 47.182 13.972C48.4096 14.6114 49.9569 15.1996 51.8239 15.7367C53.6141 16.2482 55.0719 16.7213 56.1972 17.1561C57.3225 17.5909 58.1536 18.0896 58.6907 18.6522C59.2534 19.1893 59.5347 19.9054 59.5347 20.8005C59.5347 22.1048 59.0104 23.1534 57.9618 23.9462C56.9388 24.7134 55.3276 25.0971 53.1282 25.0971C51.696 25.0971 50.5196 24.9053 49.5989 24.5216C48.7038 24.1124 48.0004 23.6137 47.4889 23.0255C47.003 22.4117 46.6961 21.7979 46.5683 21.1841C46.5171 20.9795 46.4148 20.8005 46.2614 20.647C46.1079 20.4936 45.8777 20.4169 45.5708 20.4169H43.6144C43.3842 20.4169 43.1796 20.5064 43.0006 20.6854C42.8471 20.8389 42.7704 21.0179 42.7704 21.2225C42.8215 22.4501 43.2435 23.6137 44.0364 24.7134C44.8547 25.7876 46.0184 26.6699 47.5273 27.3604ZM69.9335 27.5906C70.9821 28.1021 72.1458 28.3579 73.4245 28.3579C74.6521 28.3579 75.6879 28.2172 76.5318 27.9359C77.3758 27.629 78.0791 27.2581 78.6417 26.8234C79.2044 26.363 79.6519 25.9027 79.9844 25.4423V27.0919C79.9844 27.3476 80.0611 27.565 80.2146 27.7441C80.368 27.8975 80.5854 27.9742 80.8668 27.9742H82.6314C82.8872 27.9742 83.0918 27.8975 83.2452 27.7441C83.4242 27.565 83.5137 27.3476 83.5137 27.0919V14.6625C83.5137 13.793 83.3731 12.9362 83.0918 12.0923C82.836 11.2483 82.4012 10.4938 81.7874 9.82891C81.1992 9.16396 80.3808 8.63968 79.3323 8.25605C78.2837 7.84686 76.9922 7.64226 75.4577 7.64226C74.0766 7.64226 72.9002 7.83407 71.9284 8.21769C70.9821 8.57574 70.2021 9.0233 69.5883 9.56037C68.9745 10.0974 68.5141 10.6473 68.2072 11.2099C67.9259 11.7726 67.7852 12.2457 67.7852 12.6293C67.7852 12.8595 67.8492 13.0641 67.9771 13.2431C68.1305 13.3966 68.3479 13.4733 68.6292 13.4733H70.3555C70.7391 13.4733 71.0077 13.2815 71.1611 12.8979C71.4424 12.1818 71.9284 11.5936 72.6189 11.1332C73.335 10.6729 74.2685 10.4427 75.4193 10.4427C77.005 10.4427 78.143 10.788 78.8336 11.4785C79.5497 12.169 79.9077 13.1281 79.9077 14.3556V15.4682L74.1917 16.2738C71.89 16.6062 70.023 17.2967 68.5909 18.3453C67.1587 19.3939 66.4426 20.8005 66.4426 22.5652C66.4426 23.6649 66.7623 24.6495 67.4016 25.519C68.041 26.3886 68.885 27.0791 69.9335 27.5906ZM77.1073 24.8285C76.2377 25.2633 75.2787 25.4807 74.2301 25.4807C73.5396 25.4807 72.8618 25.3656 72.1969 25.1354C71.5575 24.9053 71.0205 24.56 70.5857 24.0996C70.1765 23.6137 69.9719 23.0127 69.9719 22.2966C69.9719 21.3759 70.4322 20.6215 71.3529 20.0333C72.2736 19.4195 73.6419 18.9847 75.4577 18.7289L79.9077 18.0768V19.1509C79.9077 20.5831 79.6519 21.7723 79.1405 22.7186C78.6545 23.6649 77.9768 24.3682 77.1073 24.8285ZM89.9493 27.9742C89.6936 27.9742 89.4762 27.8975 89.2971 27.7441C89.1437 27.565 89.067 27.3476 89.067 27.0919V1.61939C89.067 1.36364 89.1437 1.15905 89.2971 1.0056C89.4762 0.826573 89.6936 0.737061 89.9493 0.737061H91.7523C92.0336 0.737061 92.251 0.826573 92.4045 1.0056C92.5579 1.15905 92.6347 1.36364 92.6347 1.61939V27.0919C92.6347 27.3476 92.5579 27.565 92.4045 27.7441C92.251 27.8975 92.0336 27.9742 91.7523 27.9742H89.9493ZM100.006 25.941C101.567 27.5522 103.664 28.3579 106.298 28.3579C107.628 28.3579 108.804 28.1916 109.827 27.8591C110.85 27.5011 111.72 27.0535 112.436 26.5165C113.152 25.9794 113.702 25.4423 114.085 24.9053C114.469 24.3426 114.674 23.8695 114.699 23.4859C114.725 23.2301 114.648 23.0383 114.469 22.9104C114.316 22.757 114.111 22.6802 113.855 22.6802H112.014C111.733 22.6802 111.528 22.7186 111.4 22.7953C111.272 22.8465 111.093 23.0383 110.863 23.3708C110.735 23.5498 110.479 23.8183 110.096 24.1764C109.712 24.5088 109.213 24.8157 108.6 25.0971C107.986 25.3784 107.219 25.519 106.298 25.519C105.224 25.519 104.303 25.2377 103.536 24.6751C102.769 24.1124 102.18 23.3836 101.771 22.4884C101.362 21.5677 101.132 20.5831 101.081 19.5345V19.3427V19.1893H114.354C114.61 19.1893 114.814 19.1126 114.968 18.9591C115.147 18.8057 115.236 18.5883 115.236 18.307V17.6548C115.236 15.6344 114.891 13.8697 114.201 12.3608C113.51 10.8519 112.5 9.68824 111.17 8.86985C109.866 8.05146 108.242 7.64226 106.298 7.64226C104.559 7.64226 103.037 8.01309 101.733 8.75476C100.454 9.49643 99.4438 10.5578 98.7022 11.9388C97.9605 13.2943 97.5385 14.8799 97.4362 16.6957C97.4107 17.0282 97.3979 17.463 97.3979 18.0001C97.3979 18.5116 97.4107 18.9335 97.4362 19.266C97.5897 22.0792 98.4464 24.3042 100.006 25.941ZM111.592 16.5423H101.081V16.4272C101.081 15.2763 101.285 14.2533 101.694 13.3582C102.104 12.4631 102.692 11.7598 103.459 11.2483C104.252 10.7112 105.198 10.4427 106.298 10.4427C107.398 10.4427 108.344 10.7112 109.137 11.2483C109.93 11.7598 110.531 12.4631 110.94 13.3582C111.374 14.2533 111.592 15.2763 111.592 16.4272V16.5423ZM123.046 27.8208C122.023 27.4627 121.192 27.028 120.552 26.5165C119.913 26.005 119.427 25.4935 119.094 24.982C118.787 24.4705 118.621 24.0613 118.596 23.7544C118.57 23.4731 118.66 23.2557 118.864 23.1022C119.069 22.9488 119.273 22.8721 119.478 22.8721H121.166C121.319 22.8721 121.434 22.8976 121.511 22.9488C121.613 22.9744 121.741 23.0767 121.895 23.2557C122.227 23.6137 122.598 23.9718 123.007 24.3298C123.417 24.6879 123.915 24.982 124.503 25.2122C125.117 25.4423 125.872 25.5574 126.767 25.5574C128.071 25.5574 129.145 25.3144 129.989 24.8285C130.833 24.317 131.255 23.5754 131.255 22.6035C131.255 21.9642 131.076 21.4527 130.718 21.069C130.386 20.6854 129.772 20.3402 128.877 20.0333C128.007 19.7264 126.805 19.4067 125.271 19.0742C123.736 18.7162 122.521 18.2814 121.626 17.7699C120.731 17.2328 120.092 16.6062 119.708 15.8901C119.325 15.1485 119.133 14.3173 119.133 13.3966C119.133 12.4503 119.414 11.5424 119.977 10.6729C120.539 9.77775 121.358 9.04887 122.432 8.48623C123.532 7.92358 124.9 7.64226 126.537 7.64226C127.867 7.64226 129.005 7.8085 129.951 8.14097C130.897 8.47344 131.677 8.89542 132.291 9.40692C132.905 9.89284 133.365 10.3788 133.672 10.8647C133.979 11.3506 134.145 11.7598 134.171 12.0923C134.196 12.348 134.12 12.5654 133.941 12.7444C133.762 12.8979 133.557 12.9746 133.327 12.9746H131.716C131.537 12.9746 131.383 12.9362 131.255 12.8595C131.153 12.7828 131.051 12.6933 130.948 12.591C130.693 12.2585 130.386 11.926 130.028 11.5936C129.695 11.2611 129.248 10.9926 128.685 10.788C128.148 10.5578 127.432 10.4427 126.537 10.4427C125.258 10.4427 124.299 10.7112 123.659 11.2483C123.02 11.7854 122.7 12.4631 122.7 13.2815C122.7 13.7674 122.841 14.2022 123.122 14.5858C123.404 14.9694 123.941 15.3147 124.734 15.6216C125.526 15.9285 126.703 16.261 128.263 16.619C129.951 16.9515 131.281 17.399 132.253 17.9617C133.224 18.5243 133.915 19.1765 134.324 19.9182C134.733 20.6598 134.938 21.5166 134.938 22.4884C134.938 23.5626 134.618 24.5472 133.979 25.4423C133.365 26.3374 132.444 27.0535 131.217 27.5906C130.015 28.1021 128.519 28.3579 126.728 28.3579C125.296 28.3579 124.069 28.1788 123.046 27.8208ZM137.538 27.7441C137.691 27.8975 137.87 27.9742 138.075 27.9742H140.031C140.338 27.9742 140.568 27.8975 140.722 27.7441C140.875 27.5906 140.965 27.4499 140.99 27.3221L143.1 21.8746H155.683L157.793 27.3221C157.844 27.4499 157.934 27.5906 158.061 27.7441C158.215 27.8975 158.445 27.9742 158.752 27.9742H160.708C160.913 27.9742 161.092 27.8975 161.245 27.7441C161.399 27.5906 161.476 27.4116 161.476 27.207C161.476 27.0791 161.45 26.9385 161.399 26.785L151.923 1.96465C151.821 1.7089 151.668 1.50431 151.463 1.35086C151.284 1.19741 151.028 1.12068 150.696 1.12068H148.087C147.729 1.12068 147.461 1.19741 147.282 1.35086C147.103 1.50431 146.962 1.7089 146.86 1.96465L137.346 26.785C137.32 26.9385 137.307 27.0791 137.307 27.207C137.307 27.4116 137.384 27.5906 137.538 27.7441ZM149.392 4.9569L154.57 18.5755H144.213L149.392 4.9569ZM165.999 35.2631C165.744 35.2631 165.526 35.1735 165.347 34.9945C165.194 34.8411 165.117 34.6365 165.117 34.3807V8.90821C165.117 8.65246 165.194 8.44787 165.347 8.29442C165.526 8.11539 165.744 8.02588 165.999 8.02588H167.764C168.02 8.02588 168.224 8.11539 168.378 8.29442C168.557 8.44787 168.646 8.65246 168.646 8.90821V10.5961C169.26 9.75218 170.079 9.04887 171.102 8.48623C172.125 7.92358 173.403 7.64226 174.938 7.64226C176.37 7.64226 177.585 7.88522 178.582 8.37114C179.605 8.85706 180.436 9.52201 181.076 10.366C181.741 11.2099 182.239 12.169 182.572 13.2431C182.904 14.3173 183.083 15.4682 183.109 16.6957C183.134 17.1049 183.147 17.5397 183.147 18.0001C183.147 18.4604 183.134 18.8952 183.109 19.3044C183.083 20.5064 182.904 21.6573 182.572 22.757C182.239 23.8311 181.741 24.7902 181.076 25.6341C180.436 26.4525 179.605 27.1175 178.582 27.629C177.585 28.1149 176.37 28.3579 174.938 28.3579C173.454 28.3579 172.201 28.0893 171.178 27.5522C170.181 26.9896 169.362 26.2991 168.723 25.4807V34.3807C168.723 34.6365 168.646 34.8411 168.493 34.9945C168.339 35.1735 168.122 35.2631 167.841 35.2631H165.999ZM174.132 25.2505C175.462 25.2505 176.498 24.9692 177.239 24.4065C178.007 23.8183 178.557 23.0639 178.889 22.1432C179.222 21.1969 179.413 20.1867 179.464 19.1126C179.49 18.3709 179.49 17.6292 179.464 16.8876C179.413 15.8134 179.222 14.816 178.889 13.8953C178.557 12.949 178.007 12.1946 177.239 11.6319C176.498 11.0437 175.462 10.7496 174.132 10.7496C172.879 10.7496 171.856 11.0437 171.063 11.6319C170.296 12.2201 169.72 12.9746 169.337 13.8953C168.979 14.7904 168.774 15.7111 168.723 16.6574C168.697 17.0666 168.685 17.5525 168.685 18.1151C168.685 18.6778 168.697 19.1765 168.723 19.6113C168.749 20.5064 168.953 21.3887 169.337 22.2583C169.746 23.1278 170.347 23.8439 171.14 24.4065C171.933 24.9692 172.93 25.2505 174.132 25.2505ZM188.2 34.9945C188.379 35.1735 188.596 35.2631 188.852 35.2631H190.693C190.975 35.2631 191.192 35.1735 191.345 34.9945C191.499 34.8411 191.576 34.6365 191.576 34.3807V25.4807C192.215 26.2991 193.033 26.9896 194.031 27.5522C195.054 28.0893 196.307 28.3579 197.79 28.3579C199.222 28.3579 200.437 28.1149 201.435 27.629C202.458 27.1175 203.289 26.4525 203.928 25.6341C204.593 24.7902 205.092 23.8311 205.424 22.757C205.757 21.6573 205.936 20.5064 205.961 19.3044C205.987 18.8952 206 18.4604 206 18.0001C206 17.5397 205.987 17.1049 205.961 16.6957C205.936 15.4682 205.757 14.3173 205.424 13.2431C205.092 12.169 204.593 11.2099 203.928 10.366C203.289 9.52201 202.458 8.85706 201.435 8.37114C200.437 7.88522 199.222 7.64226 197.79 7.64226C196.256 7.64226 194.977 7.92358 193.954 8.48623C192.931 9.04887 192.113 9.75218 191.499 10.5961V8.90821C191.499 8.65246 191.409 8.44787 191.23 8.29442C191.077 8.11539 190.872 8.02588 190.616 8.02588H188.852C188.596 8.02588 188.379 8.11539 188.2 8.29442C188.046 8.44787 187.969 8.65246 187.969 8.90821V34.3807C187.969 34.6365 188.046 34.8411 188.2 34.9945ZM200.092 24.4065C199.35 24.9692 198.314 25.2505 196.985 25.2505C195.783 25.2505 194.785 24.9692 193.992 24.4065C193.2 23.8439 192.599 23.1278 192.189 22.2583C191.806 21.3887 191.601 20.5064 191.576 19.6113C191.55 19.1765 191.537 18.6778 191.537 18.1151C191.537 17.5525 191.55 17.0666 191.576 16.6574C191.627 15.7111 191.831 14.7904 192.189 13.8953C192.573 12.9746 193.148 12.2201 193.916 11.6319C194.708 11.0437 195.731 10.7496 196.985 10.7496C198.314 10.7496 199.35 11.0437 200.092 11.6319C200.859 12.1946 201.409 12.949 201.742 13.8953C202.074 14.816 202.266 15.8134 202.317 16.8876C202.343 17.6292 202.343 18.3709 202.317 19.1126C202.266 20.1867 202.074 21.1969 201.742 22.1432C201.409 23.0639 200.859 23.8183 200.092 24.4065ZM0.579384 3.77514C0.968151 3.38637 1.47848 3.19325 1.98802 3.19578L1.9972 3.19576L1.99803 3.19576H29.9355H29.9596H29.9603H29.9705C31.0739 3.19576 31.9685 4.09031 31.9685 5.19379L31.9685 5.19915L31.9685 5.21652C31.9716 5.74087 31.7731 6.26621 31.3731 6.66628L27.4469 10.5924C27.0468 10.9925 26.5215 11.191 25.9971 11.1879C25.479 11.191 24.96 10.9949 24.5647 10.5996C24.1694 10.2043 23.9733 9.68523 23.9764 9.16714C23.9733 8.64278 24.1717 8.11745 24.5718 7.71737L25.0974 7.19182H6.82752L18.5947 18.959C18.9887 19.353 19.1842 19.8704 19.1811 20.3869C19.1841 20.8971 18.991 21.4082 18.6017 21.7975C18.2124 22.1868 17.7012 22.3799 17.191 22.3768C16.6746 22.3799 16.1572 22.1845 15.7632 21.7905L0.586413 6.61363C0.194791 6.22201 -0.000678713 5.70851 1.77055e-06 5.19523L1.26208e-06 5.19379L3.29416e-06 5.19296L2.5809e-05 5.18378C-0.00250503 4.67424 0.190614 4.16391 0.579384 3.77514ZM5.19496 28.3535L5.19488 28.371C5.19488 29.4745 6.08943 30.369 7.19291 30.369H7.22507H7.23066H35.1588H35.1636H35.1653C36.2688 30.369 37.1634 29.4745 37.1634 28.371V28.3706C37.1643 27.8569 36.9689 27.343 36.577 26.9511L21.4002 11.7743C20.6183 10.9924 19.3506 10.9924 18.5687 11.7743C17.7868 12.5562 17.7868 13.8239 18.5687 14.6058L30.3359 26.3729H12.066L12.5916 25.8474C13.3855 25.0535 13.3855 23.7663 12.5916 22.9723C11.7976 22.1784 10.5104 22.1784 9.71649 22.9723L5.79033 26.8985C5.38892 27.2999 5.19046 27.8274 5.19496 28.3535Z" fill="#1A73E9"/>
</svg>